<mxfile host="Electron" modified="2023-07-26T06:12:51.045Z" agent="Mozilla/5.0 (Windows NT 10.0; Win64; x64) AppleWebKit/537.36 (KHTML, like Gecko) draw.io/21.6.5 Chrome/114.0.5735.243 Electron/25.3.1 Safari/537.36" etag="Cbjwv_wwo088Xf-VgI9C" version="21.6.5" type="device">
  <diagram name="Sayfa -1" id="jYOBTxKnvpTKxqS3JgCw">
    <mxGraphModel dx="1418" dy="820" grid="1" gridSize="10" guides="1" tooltips="1" connect="1" arrows="1" fold="1" page="1" pageScale="1" pageWidth="1169" pageHeight="827" math="0" shadow="0">
      <root>
        <mxCell id="0" />
        <mxCell id="1" parent="0" />
        <mxCell id="2kTgIxqwMKKEZ4rfoA_Y-15" value="Micro Services" style="swimlane;whiteSpace=wrap;html=1;" parent="1" vertex="1">
          <mxGeometry x="360" y="40" width="320" height="280" as="geometry">
            <mxRectangle x="360" y="40" width="130" height="30" as="alternateBounds" />
          </mxGeometry>
        </mxCell>
        <mxCell id="2kTgIxqwMKKEZ4rfoA_Y-25" value="Windows Services" style="rounded=1;whiteSpace=wrap;html=1;fillColor=#b1ddf0;strokeColor=#10739e;" parent="2kTgIxqwMKKEZ4rfoA_Y-15" vertex="1">
          <mxGeometry x="20" y="40" width="120" height="60" as="geometry" />
        </mxCell>
        <mxCell id="2kTgIxqwMKKEZ4rfoA_Y-45" value="" style="group" parent="2kTgIxqwMKKEZ4rfoA_Y-15" vertex="1" connectable="0">
          <mxGeometry x="160" y="40" width="135" height="210" as="geometry" />
        </mxCell>
        <mxCell id="2kTgIxqwMKKEZ4rfoA_Y-26" value="Web Services" style="rounded=1;whiteSpace=wrap;html=1;fillColor=#b1ddf0;strokeColor=#10739e;" parent="2kTgIxqwMKKEZ4rfoA_Y-45" vertex="1">
          <mxGeometry x="15" width="120" height="60" as="geometry" />
        </mxCell>
        <mxCell id="2kTgIxqwMKKEZ4rfoA_Y-27" value="RabbitMQ" style="rounded=1;whiteSpace=wrap;html=1;fillColor=#dae8fc;strokeColor=#6c8ebf;" parent="2kTgIxqwMKKEZ4rfoA_Y-45" vertex="1">
          <mxGeometry x="15" y="70" width="90" height="40" as="geometry" />
        </mxCell>
        <mxCell id="2kTgIxqwMKKEZ4rfoA_Y-28" value="SignalR" style="rounded=1;whiteSpace=wrap;html=1;fillColor=#dae8fc;strokeColor=#6c8ebf;" parent="2kTgIxqwMKKEZ4rfoA_Y-45" vertex="1">
          <mxGeometry x="15" y="120" width="90" height="40" as="geometry" />
        </mxCell>
        <mxCell id="2kTgIxqwMKKEZ4rfoA_Y-29" value="HangFire" style="rounded=1;whiteSpace=wrap;html=1;fillColor=#dae8fc;strokeColor=#6c8ebf;" parent="2kTgIxqwMKKEZ4rfoA_Y-45" vertex="1">
          <mxGeometry x="15" y="170" width="90" height="40" as="geometry" />
        </mxCell>
        <mxCell id="2kTgIxqwMKKEZ4rfoA_Y-34" value="" style="endArrow=classic;html=1;rounded=0;exitX=0;exitY=0.5;exitDx=0;exitDy=0;entryX=0;entryY=0.5;entryDx=0;entryDy=0;" parent="2kTgIxqwMKKEZ4rfoA_Y-45" source="2kTgIxqwMKKEZ4rfoA_Y-26" target="2kTgIxqwMKKEZ4rfoA_Y-27" edge="1">
          <mxGeometry width="50" height="50" relative="1" as="geometry">
            <mxPoint x="-130" y="310" as="sourcePoint" />
            <mxPoint x="-80" y="260" as="targetPoint" />
            <Array as="points">
              <mxPoint y="30" />
              <mxPoint y="90" />
            </Array>
          </mxGeometry>
        </mxCell>
        <mxCell id="2kTgIxqwMKKEZ4rfoA_Y-35" value="" style="endArrow=classic;html=1;rounded=0;exitX=0;exitY=0.5;exitDx=0;exitDy=0;entryX=0;entryY=0.5;entryDx=0;entryDy=0;" parent="2kTgIxqwMKKEZ4rfoA_Y-45" target="2kTgIxqwMKKEZ4rfoA_Y-28" edge="1">
          <mxGeometry width="50" height="50" relative="1" as="geometry">
            <mxPoint x="15" y="90" as="sourcePoint" />
            <mxPoint x="15" y="150" as="targetPoint" />
            <Array as="points">
              <mxPoint y="90" />
              <mxPoint y="140" />
            </Array>
          </mxGeometry>
        </mxCell>
        <mxCell id="2kTgIxqwMKKEZ4rfoA_Y-44" value="" style="endArrow=classic;html=1;rounded=0;exitX=0;exitY=0.5;exitDx=0;exitDy=0;entryX=0;entryY=0.5;entryDx=0;entryDy=0;" parent="2kTgIxqwMKKEZ4rfoA_Y-45" edge="1">
          <mxGeometry width="50" height="50" relative="1" as="geometry">
            <mxPoint x="15" y="140" as="sourcePoint" />
            <mxPoint x="15" y="190" as="targetPoint" />
            <Array as="points">
              <mxPoint y="140" />
              <mxPoint y="190" />
            </Array>
          </mxGeometry>
        </mxCell>
        <mxCell id="2kTgIxqwMKKEZ4rfoA_Y-33" value="" style="shape=flexArrow;endArrow=classic;startArrow=classic;html=1;rounded=0;exitX=0.5;exitY=0;exitDx=0;exitDy=0;entryX=0;entryY=0;entryDx=0;entryDy=0;" parent="1" source="Q3LjOVt5h_p9Y7JhuGVs-1" target="2kTgIxqwMKKEZ4rfoA_Y-15" edge="1">
          <mxGeometry width="100" height="100" relative="1" as="geometry">
            <mxPoint x="360" y="410" as="sourcePoint" />
            <mxPoint x="460" y="310" as="targetPoint" />
            <Array as="points">
              <mxPoint x="170" y="40" />
            </Array>
          </mxGeometry>
        </mxCell>
        <mxCell id="2kTgIxqwMKKEZ4rfoA_Y-55" value="" style="group" parent="1" vertex="1" connectable="0">
          <mxGeometry x="1000" y="470" width="130" height="340" as="geometry" />
        </mxCell>
        <mxCell id="2kTgIxqwMKKEZ4rfoA_Y-46" value="DB" style="shape=cylinder;whiteSpace=wrap;html=1;boundedLbl=1;backgroundOutline=1;fillColor=#f8cecc;strokeColor=#B266FF;" parent="2kTgIxqwMKKEZ4rfoA_Y-55" vertex="1">
          <mxGeometry x="20" y="240" width="90" height="100" as="geometry" />
        </mxCell>
        <mxCell id="2kTgIxqwMKKEZ4rfoA_Y-47" value="Repository Manager" style="rounded=1;whiteSpace=wrap;html=1;absoluteArcSize=1;arcSize=14;strokeWidth=2;" parent="2kTgIxqwMKKEZ4rfoA_Y-55" vertex="1">
          <mxGeometry y="80" width="130" height="40" as="geometry" />
        </mxCell>
        <mxCell id="2kTgIxqwMKKEZ4rfoA_Y-48" value="Entity" style="rounded=1;whiteSpace=wrap;html=1;absoluteArcSize=1;arcSize=14;strokeWidth=2;" parent="2kTgIxqwMKKEZ4rfoA_Y-55" vertex="1">
          <mxGeometry y="163" width="130" height="40" as="geometry" />
        </mxCell>
        <mxCell id="2kTgIxqwMKKEZ4rfoA_Y-49" value="Service Manager" style="rounded=1;whiteSpace=wrap;html=1;absoluteArcSize=1;arcSize=14;strokeWidth=2;" parent="2kTgIxqwMKKEZ4rfoA_Y-55" vertex="1">
          <mxGeometry width="130" height="40" as="geometry" />
        </mxCell>
        <mxCell id="2kTgIxqwMKKEZ4rfoA_Y-50" value="" style="endArrow=classic;html=1;rounded=0;entryX=0.5;entryY=1;entryDx=0;entryDy=0;exitX=0.5;exitY=0;exitDx=0;exitDy=0;" parent="2kTgIxqwMKKEZ4rfoA_Y-55" source="2kTgIxqwMKKEZ4rfoA_Y-47" target="2kTgIxqwMKKEZ4rfoA_Y-49" edge="1">
          <mxGeometry width="50" height="50" relative="1" as="geometry">
            <mxPoint x="-190" y="180" as="sourcePoint" />
            <mxPoint x="-240" y="230" as="targetPoint" />
            <Array as="points" />
          </mxGeometry>
        </mxCell>
        <mxCell id="2kTgIxqwMKKEZ4rfoA_Y-51" value="" style="endArrow=classic;html=1;rounded=0;entryX=0.5;entryY=1;entryDx=0;entryDy=0;exitX=0.5;exitY=0;exitDx=0;exitDy=0;" parent="2kTgIxqwMKKEZ4rfoA_Y-55" source="2kTgIxqwMKKEZ4rfoA_Y-48" target="2kTgIxqwMKKEZ4rfoA_Y-47" edge="1">
          <mxGeometry width="50" height="50" relative="1" as="geometry">
            <mxPoint x="75" y="90" as="sourcePoint" />
            <mxPoint x="75" y="50" as="targetPoint" />
            <Array as="points" />
          </mxGeometry>
        </mxCell>
        <mxCell id="2kTgIxqwMKKEZ4rfoA_Y-52" value="" style="endArrow=classic;html=1;rounded=0;entryX=0.5;entryY=1;entryDx=0;entryDy=0;exitX=0.5;exitY=0;exitDx=0;exitDy=0;" parent="2kTgIxqwMKKEZ4rfoA_Y-55" source="2kTgIxqwMKKEZ4rfoA_Y-46" target="2kTgIxqwMKKEZ4rfoA_Y-48" edge="1">
          <mxGeometry width="50" height="50" relative="1" as="geometry">
            <mxPoint x="85" y="140" as="sourcePoint" />
            <mxPoint x="85" y="100" as="targetPoint" />
            <Array as="points" />
          </mxGeometry>
        </mxCell>
        <mxCell id="2kTgIxqwMKKEZ4rfoA_Y-1" value="USER MANAGEMENT (JWT)" style="rounded=1;whiteSpace=wrap;html=1;fontStyle=1;fontFamily=Verdana;fillColor=#fff2cc;gradientColor=#ffd966;strokeColor=#d6b656;" parent="1" vertex="1">
          <mxGeometry x="110" y="310" width="120" height="60" as="geometry" />
        </mxCell>
        <mxCell id="2kTgIxqwMKKEZ4rfoA_Y-7" value="SatNET API" style="rounded=1;whiteSpace=wrap;html=1;fontStyle=1;fontFamily=Verdana;fillColor=#fff2cc;gradientColor=#ffd966;strokeColor=#d6b656;" parent="1" vertex="1">
          <mxGeometry x="110" y="390" width="120" height="60" as="geometry" />
        </mxCell>
        <mxCell id="Q3LjOVt5h_p9Y7JhuGVs-1" value="API GATEWAY" style="rounded=1;whiteSpace=wrap;html=1;fillColor=#f8cecc;strokeColor=#b85450;shadow=1;fontSize=14;fontStyle=1" parent="1" vertex="1">
          <mxGeometry x="90" y="190" width="160" height="70" as="geometry" />
        </mxCell>
        <mxCell id="2kTgIxqwMKKEZ4rfoA_Y-12" value="" style="endArrow=classic;html=1;rounded=0;exitX=0;exitY=0.5;exitDx=0;exitDy=0;entryX=0;entryY=0.5;entryDx=0;entryDy=0;" parent="1" source="Q3LjOVt5h_p9Y7JhuGVs-1" target="2kTgIxqwMKKEZ4rfoA_Y-1" edge="1">
          <mxGeometry width="50" height="50" relative="1" as="geometry">
            <mxPoint x="600" y="610" as="sourcePoint" />
            <mxPoint x="650" y="560" as="targetPoint" />
            <Array as="points">
              <mxPoint x="60" y="225" />
              <mxPoint x="60" y="340" />
            </Array>
          </mxGeometry>
        </mxCell>
        <mxCell id="2kTgIxqwMKKEZ4rfoA_Y-13" value="" style="endArrow=classic;html=1;rounded=0;exitX=0;exitY=0.5;exitDx=0;exitDy=0;" parent="1" source="Q3LjOVt5h_p9Y7JhuGVs-1" target="2kTgIxqwMKKEZ4rfoA_Y-7" edge="1">
          <mxGeometry width="50" height="50" relative="1" as="geometry">
            <mxPoint x="130" y="410" as="sourcePoint" />
            <mxPoint x="180" y="360" as="targetPoint" />
            <Array as="points">
              <mxPoint x="60" y="225" />
              <mxPoint x="60" y="420" />
            </Array>
          </mxGeometry>
        </mxCell>
        <mxCell id="sNzLmAKeILXtyBkwCnTK-1" value="Procost API" style="rounded=1;whiteSpace=wrap;html=1;fontStyle=1;fontFamily=Verdana;fillColor=#fff2cc;gradientColor=#ffd966;strokeColor=#d6b656;" vertex="1" parent="1">
          <mxGeometry x="110" y="470" width="120" height="60" as="geometry" />
        </mxCell>
        <mxCell id="sNzLmAKeILXtyBkwCnTK-3" value="" style="endArrow=classic;html=1;rounded=0;entryX=0.017;entryY=0.617;entryDx=0;entryDy=0;entryPerimeter=0;" edge="1" parent="1" target="sNzLmAKeILXtyBkwCnTK-1">
          <mxGeometry width="50" height="50" relative="1" as="geometry">
            <mxPoint x="60" y="420" as="sourcePoint" />
            <mxPoint x="610" y="400" as="targetPoint" />
            <Array as="points">
              <mxPoint x="60" y="507" />
            </Array>
          </mxGeometry>
        </mxCell>
      </root>
    </mxGraphModel>
  </diagram>
</mxfile>
